<?xml version="1.0" encoding="UTF-8"?>
<svg xmlns="http://www.w3.org/2000/svg" viewBox="0 0 427 363" role="img" aria-labelledby="title desc">
  <title id="title">CA monogram, Christian Álvarez</title>
  <desc id="desc">CA monogram. Smooth Bézier retrace of the author's traced SVG (approved by the author); corners preserved.</desc>
  <g id="ca">
    <path d="M 263.92 293.08 C 236.99 292.81 210.04 293.00 183.11 293.00 C 157.93 293.00 135.13 293.61 112.31 280.97 C 102.88 275.75 94.11 268.57 87.12 260.37 C 82.12 254.50 76.94 248.09 73.32 241.25 C 43.03 183.90 70.36 111.52 124.81 79.84 C 140.98 70.43 159.61 65.08 178.17 63.23 C 183.39 62.71 188.83 63.00 194.08 63.00 C 203.08 63.00 212.08 63.00 221.08 63.00 C 259.05 63.00 297.03 63.33 335.00 62.91 C 308.60 27.80 265.49 11.92 223.12 7.53 C 218.55 7.05 213.99 7.05 209.40 6.85 C 206.82 6.74 204.27 6.27 201.69 6.15 C 196.75 5.92 191.75 6.01 186.81 6.13 C 163.54 6.73 139.43 12.60 118.37 22.45 C 70.31 44.93 33.45 85.40 15.73 135.42 C 11.70 146.79 9.06 158.39 7.34 170.32 C 6.93 173.17 6.31 176.11 6.15 178.98 C 5.90 183.27 6.01 187.63 6.00 191.93 C 5.99 197.50 5.67 203.29 6.23 208.83 C 7.62 222.40 10.75 235.52 15.12 248.42 C 18.06 257.10 22.39 265.39 27.03 273.26 C 49.86 311.98 88.72 342.56 132.90 352.46 C 148.20 355.89 169.51 358.12 184.76 354.05 C 191.14 352.35 197.16 350.12 202.91 346.85 C 213.54 340.80 222.91 332.84 232.05 324.79 C 243.29 314.88 254.20 304.51 263.92 293.08 Z"/>
    <path d="M 127.00 281.00 C 140.40 269.10 154.20 257.63 167.70 245.83 C 177.51 237.25 187.43 228.80 197.20 220.17 C 202.91 215.13 208.45 209.90 214.27 204.97 C 221.27 199.04 228.30 193.13 235.09 186.96 C 237.87 184.43 240.72 181.01 244.94 181.50 C 250.24 182.12 253.37 187.43 256.23 191.24 C 263.68 201.13 269.21 212.61 275.34 223.35 C 285.43 241.03 295.48 258.79 305.17 276.69 C 308.18 282.24 310.88 287.95 313.93 293.48 C 316.46 298.09 319.30 302.53 321.79 307.16 C 326.48 315.87 331.27 324.55 335.86 333.31 C 339.35 339.96 342.64 346.95 347.07 353.00 C 372.04 353.00 397.01 353.12 421.98 352.94 C 417.00 342.54 411.17 332.59 405.60 322.50 C 400.05 312.44 394.47 302.40 388.81 292.40 C 375.87 269.53 363.23 246.48 350.11 223.72 C 339.92 206.05 329.21 188.64 318.77 171.13 C 315.72 166.01 312.43 161.06 309.48 155.88 C 303.97 146.19 298.29 136.58 292.58 127.01 C 288.89 120.82 285.38 114.47 281.11 108.67 C 277.31 103.50 272.31 95.89 264.86 96.51 C 258.28 97.06 254.64 102.70 250.97 107.40 C 242.47 118.29 234.95 129.98 226.98 141.25 C 204.18 173.53 181.34 205.82 158.05 237.75 C 147.60 252.08 136.89 266.28 127.00 281.00 Z"/>
  </g>
</svg>
